<svg xmlns="http://www.w3.org/2000/svg" width="16" height="16" fill="context-fill" fill-opacity="context-fill-opacity" viewBox="0 0 16 16"><path d="M7.913 1C8.513 1 9 1.487 9 2.087v11.826a1.087 1.087 0 0 1-1.731.875l-.078-.062-3.907-3.473a1 1 0 0 0-.573-.249L2.62 11H1l-.103-.005A1 1 0 0 1 0 10V6a1 1 0 0 1 1-1h1.62l.091-.004c.182-.017.355-.083.502-.191l.071-.058 3.907-3.473A1.1 1.1 0 0 1 7.913 1M4.114 5.682a2.25 2.25 0 0 1-1.494.568H1.25v3.5h1.37c.482 0 .95.155 1.335.439l.159.129 3.636 3.231V2.45ZM14.75 8c0-1.043-.236-2.06-.674-2.945-.439-.886-1.057-1.597-1.775-2.08A.626.626 0 0 1 13 1.938c.912.614 1.669 1.498 2.196 2.562A7.9 7.9 0 0 1 16 8a7.9 7.9 0 0 1-.804 3.5c-.527 1.064-1.284 1.948-2.196 2.563a.625.625 0 0 1-.699-1.037c.718-.484 1.336-1.195 1.775-2.08A6.7 6.7 0 0 0 14.75 8m-3 0c0-.526-.083-1.044-.241-1.52a4 4 0 0 0-.657-1.234.626.626 0 0 1 .977-.782 5.3 5.3 0 0 1 .867 1.622A6.1 6.1 0 0 1 13 8c0 .657-.103 1.307-.304 1.913a5.2 5.2 0 0 1-.867 1.623.626.626 0 0 1-.977-.782c.272-.34.499-.758.657-1.234s.241-.993.241-1.52"/></svg>
