<svg xmlns="http://www.w3.org/2000/svg" width="16" height="16" fill="context-fill" fill-opacity="context-fill-opacity" viewBox="0 0 16 16"><path d="M7.913 1C8.513 1 9 1.487 9 2.087v11.826a1.087 1.087 0 0 1-1.731.875l-.078-.062-3.907-3.473a1 1 0 0 0-.573-.249L2.62 11H1l-.103-.005A1 1 0 0 1 0 10V6a1 1 0 0 1 1-1h1.62l.091-.004c.182-.017.355-.083.502-.191l.071-.058 3.907-3.473A1.1 1.1 0 0 1 7.913 1M4.114 5.682a2.25 2.25 0 0 1-1.494.568H1.25v3.5h1.37c.482 0 .95.155 1.335.439l.159.129 3.636 3.231V2.45ZM16 6.061 14.061 8 16 9.938 14.939 11 13 9.061 11.062 11l-1.06-1.061L11.939 8 10 6.062l1.061-1.061 1.938 1.938L14.939 5Z"/></svg>
