<svg xmlns="http://www.w3.org/2000/svg" width="16" height="16" fill="context-fill" fill-opacity="context-fill-opacity" viewBox="0 0 16 16"><path d="M14 1a2 2 0 0 1 2 2v10a2 2 0 0 1-2 2H2a2 2 0 0 1-2-2V3a2 2 0 0 1 2-2Zm.75 1.85-.6-.6H1.85l-.6.6v10.3l.6.6h12.3l.6-.6ZM6.125 6.375a.75.75 0 0 0-.75-.75H5.25a.875.875 0 0 0-.875.875v3c0 .483.392.875.875.875h.125a.75.75 0 0 0 .75-.75.625.625 0 0 1 1.25 0 2 2 0 0 1-2 2H5.25A2.124 2.124 0 0 1 3.125 9.5v-3c0-1.174.951-2.125 2.125-2.125h.125a2 2 0 0 1 2 2 .625.625 0 0 1-1.25 0m5.5 0a.75.75 0 0 0-.75-.75h-.125a.875.875 0 0 0-.875.875v3c0 .483.392.875.875.875h.125a.75.75 0 0 0 .75-.75.625.625 0 0 1 1.25 0 2 2 0 0 1-2 2h-.125A2.124 2.124 0 0 1 8.625 9.5v-3c0-1.174.951-2.125 2.125-2.125h.125a2 2 0 0 1 2 2 .625.625 0 0 1-1.25 0"/></svg>
