<svg xmlns="http://www.w3.org/2000/svg" width="16" height="16" fill="context-fill" fill-opacity="context-fill-opacity" viewBox="0 0 16 16"><path d="M9.75 12.434c0-.4-.182-.779-.494-1.029l-.038-.03a1.415 1.415 0 0 0-1.613-.108l-.607.363a1.007 1.007 0 0 1-1.517-.992l.343-2.657.018-.103A1.124 1.124 0 0 1 6.939 7H10a.625.625 0 0 1 0 1.25H7.05l-.266 2.05.177-.106a2.67 2.67 0 0 1 3.038.204l.038.031A2.567 2.567 0 0 1 8.434 15h-.512a3.08 3.08 0 0 1-2.027-.762l-.306-.267a.625.625 0 0 1 .822-.942l.307.269a1.83 1.83 0 0 0 1.204.452h.512c.727 0 1.316-.589 1.316-1.316m2.937-9.622 1.459-1.459a.502.502 0 0 1 .854.354V5.7l-.3.3h-3.993a.5.5 0 0 1-.353-.854l1.451-1.451A5.7 5.7 0 0 0 8 2.25a5.76 5.76 0 0 0-5.218 3.336A.69.69 0 0 1 2.16 6c-.432 0-.742-.418-.567-.814A7.01 7.01 0 0 1 8 1a6.95 6.95 0 0 1 4.687 1.812"/></svg>
